<svg width="830" height="238" viewBox="0 0 830 238" fill="none" xmlns="http://www.w3.org/2000/svg">
<g filter="url(#filter0_d)">
<path d="M203.816 69.9774C203.43 69.9641 195.487 69.696 183.828 69.9536V46.0485C183.828 42.5246 180.819 39.7297 177.276 40.0209C154.028 41.9617 124.45 52.2343 106.827 70.971C89.2038 52.2343 59.6262 41.9617 36.3784 40.0209C32.842 39.7329 29.8265 42.5153 29.8265 46.0485V70.6C23.2021 70.35 16.9361 70.1738 10.2281 69.9766C6.84488 69.8698 4 72.5949 4 76.0224V186.177C4 189.36 6.46664 191.998 9.64259 192.211C33.7033 193.831 74.0071 194.013 104.454 206.999C107.168 208.158 109.604 206.827 109.201 206.999C139.647 194.014 179.944 193.832 204.012 192.211C207.188 191.998 209.655 189.36 209.655 186.177V76.0224C209.654 72.7638 207.073 70.0911 203.816 69.9774V69.9774ZM171.73 52.8517V156.521C154.288 160.423 132.182 168.749 112.876 186.403C112.876 181.078 112.876 85.312 112.876 82.432C126.11 65.9192 151.174 55.9663 171.73 52.8517V52.8517ZM41.9239 52.8517C62.48 55.9663 87.544 65.9192 100.778 82.432V186.403C81.472 168.749 59.3666 160.423 41.9239 156.521V52.8517ZM16.0973 180.485V82.2518C20.4285 82.38 25.061 82.5247 29.8265 82.7066V161.451C29.8265 164.361 31.8992 166.859 34.7594 167.395C48.5709 169.988 66.5314 175.615 83.2708 187.731C59.3887 182.374 34.3909 181.513 16.0973 180.485ZM197.557 180.485C179.293 181.512 154.275 182.372 130.383 187.731C147.122 175.615 165.083 169.988 178.894 167.395C181.755 166.859 183.827 164.361 183.827 161.451V82.055C189.394 81.9304 194.136 81.9288 197.557 81.9598V180.485H197.557Z" fill="#81568F"/>
<path d="M85.0951 96.3653C80.4102 93.1014 72.3336 89.0952 63.7143 87.6387C60.4218 87.0798 57.2991 89.3013 56.7422 92.595C56.1857 95.8887 58.4048 99.0102 61.6989 99.5666C68.3536 100.691 74.7361 103.892 78.1799 106.291C80.9199 108.2 84.6902 107.527 86.6004 104.786C88.5097 102.045 87.8359 98.2746 85.0951 96.3653V96.3653Z" fill="#81568F"/>
<path d="M84.4894 130.427C80.1791 127.795 71.7485 123.177 63.7143 121.819C60.4218 121.261 57.2991 123.481 56.7422 126.775C56.1857 130.069 58.4048 133.19 61.6989 133.747C67.9576 134.804 75.3124 138.997 78.1839 140.751C81.0384 142.494 84.7596 141.59 86.4988 138.742C88.24 135.891 87.3403 132.169 84.4894 130.427V130.427Z" fill="#81568F"/>
<path d="M135.474 106.291C138.918 103.892 145.301 100.691 151.955 99.5666C155.249 99.0101 157.468 95.8886 156.912 92.5949C156.356 89.3008 153.233 87.0785 149.94 87.6386C141.321 89.0948 133.244 93.1014 128.559 96.3652C125.818 98.2746 125.145 102.045 127.054 104.786C128.964 107.528 132.736 108.199 135.474 106.291V106.291Z" fill="#81568F"/>
<path d="M149.94 121.819C141.906 123.177 133.475 127.795 129.165 130.428C126.314 132.169 125.414 135.892 127.155 138.743C128.897 141.593 132.619 142.493 135.47 140.752C138.342 138.998 145.697 134.805 151.955 133.747C155.249 133.191 157.468 130.07 156.912 126.775C156.355 123.481 153.233 121.259 149.94 121.819V121.819Z" fill="#81568F"/>
</g>
<g filter="url(#filter1_d)">
<path d="M251.041 192H239.462V114.953H251.041V192ZM319.374 169.435H276.025C276.322 173.394 278.153 176.61 281.518 179.085C284.883 181.559 288.792 182.796 293.246 182.796C300.273 182.796 305.518 180.619 308.982 176.264L315.662 183.538C309.724 189.773 301.955 192.891 292.355 192.891C284.438 192.891 277.807 190.268 272.462 185.023C267.118 179.777 264.446 172.849 264.446 164.239C264.446 155.827 267.167 148.998 272.611 143.753C278.054 138.507 284.636 135.885 292.355 135.885C300.075 135.885 306.508 138.21 311.654 142.862C316.8 147.513 319.374 153.699 319.374 161.419V169.435ZM307.794 160.231C307.794 155.777 306.359 152.264 303.489 149.691C300.718 147.118 297.106 145.831 292.652 145.831C288.198 145.831 284.289 147.167 280.924 149.839C277.658 152.511 276.025 155.975 276.025 160.231H307.794ZM376.959 192H366.419V184.577C361.767 190.12 355.631 192.891 348.01 192.891C342.171 192.891 337.371 191.258 333.61 187.992C329.949 184.627 328.118 180.272 328.118 174.928C328.118 169.584 330.097 165.526 334.056 162.755C338.015 159.984 343.458 158.598 350.386 158.598H365.528V156.52C365.528 149.196 361.421 145.534 353.206 145.534C348.06 145.534 342.716 147.414 337.173 151.175L331.977 143.901C338.806 138.557 346.427 135.885 354.839 135.885C361.668 135.885 367.062 137.616 371.021 141.08C374.98 144.445 376.959 149.542 376.959 156.371V192ZM365.38 166.763H352.316C343.903 166.763 339.697 169.386 339.697 174.631C339.697 177.303 340.736 179.381 342.815 180.866C344.893 182.252 347.813 182.944 351.573 182.944C355.433 182.944 358.699 181.905 361.371 179.827C364.043 177.649 365.38 174.829 365.38 171.365V166.763ZM404.885 168.247V192H393.306V136.775H404.885V147.761C406.765 144.297 409.289 141.476 412.456 139.299C415.722 137.122 419.137 135.984 422.699 135.885L422.848 147.612H422.254C416.613 147.612 412.308 149.443 409.339 153.105C406.37 156.767 404.885 161.814 404.885 168.247ZM446.088 192H434.509V136.775H446.088V146.722C447.969 143.357 450.542 140.734 453.808 138.854C457.173 136.874 460.736 135.885 464.496 135.885C470.929 135.885 476.026 137.814 479.787 141.674C483.548 145.534 485.428 151.027 485.428 158.153V192H473.7V161.715C473.7 151.522 469.494 146.425 461.082 146.425C456.826 146.425 453.263 147.81 450.393 150.581C447.523 153.254 446.088 157.064 446.088 162.012V192ZM513.166 192H501.587V136.775H513.166V146.722C514.849 143.357 517.372 140.734 520.737 138.854C524.102 136.874 527.715 135.885 531.574 135.885C540.383 135.885 546.321 139.497 549.389 146.722C554.832 139.497 561.661 135.885 569.876 135.885C576.21 135.885 581.257 137.814 585.018 141.674C588.779 145.534 590.659 151.027 590.659 158.153V192H579.08V161.715C579.08 151.522 574.824 146.425 566.313 146.425C562.156 146.425 558.643 147.761 555.772 150.433C553.001 153.006 551.566 156.619 551.467 161.27V192H539.739V161.715C539.739 156.47 538.799 152.61 536.919 150.136C535.038 147.662 532.119 146.425 528.16 146.425C523.904 146.425 520.341 147.81 517.471 150.581C514.601 153.254 513.166 157.064 513.166 162.012V192ZM651.74 192H641.2V184.577C636.548 190.12 630.412 192.891 622.792 192.891C616.953 192.891 612.153 191.258 608.392 187.992C604.73 184.627 602.899 180.272 602.899 174.928C602.899 169.584 604.878 165.526 608.837 162.755C612.796 159.984 618.239 158.598 625.167 158.598H640.309V156.52C640.309 149.196 636.202 145.534 627.988 145.534C622.841 145.534 617.497 147.414 611.955 151.175L606.759 143.901C613.588 138.557 621.208 135.885 629.621 135.885C636.449 135.885 641.843 137.616 645.802 141.08C649.761 144.445 651.74 149.542 651.74 156.371V192ZM640.161 166.763H627.097C618.684 166.763 614.478 169.386 614.478 174.631C614.478 177.303 615.517 179.381 617.596 180.866C619.674 182.252 622.594 182.944 626.355 182.944C630.214 182.944 633.48 181.905 636.153 179.827C638.825 177.649 640.161 174.829 640.161 171.365V166.763ZM682.338 146.128V174.186C682.338 176.858 683.031 178.986 684.417 180.569C685.901 182.054 687.881 182.796 690.355 182.796C692.631 182.796 695.006 181.559 697.481 179.085L702.231 187.398C698.074 191.06 693.571 192.891 688.722 192.891C683.674 192.891 679.419 191.159 675.955 187.695C672.491 184.132 670.759 179.53 670.759 173.889V146.128H663.782V136.775H670.759V119.406H682.338V136.775H696.887V146.128H682.338ZM707.829 164.388C707.829 156.074 710.699 149.245 716.439 143.901C722.179 138.557 729.255 135.885 737.668 135.885C745.981 135.885 753.008 138.755 758.748 144.495L751.919 152.957C747.169 148.8 742.369 146.722 737.519 146.722C732.571 146.722 728.315 148.355 724.752 151.621C721.288 154.788 719.556 158.895 719.556 163.942C719.556 169.089 721.288 173.443 724.752 177.006C728.315 180.47 732.67 182.202 737.816 182.202C742.963 182.202 747.862 179.876 752.513 175.225L759.342 182.647C752.315 189.476 744.546 192.891 736.035 192.891C728.117 192.891 721.437 190.268 715.994 185.023C710.55 179.678 707.829 172.8 707.829 164.388ZM782.885 192H771.306V114.953H782.885V146.722C784.567 143.357 787.091 140.734 790.456 138.854C793.821 136.874 797.433 135.885 801.293 135.885C807.726 135.885 812.823 137.814 816.584 141.674C820.345 145.534 822.225 151.027 822.225 158.153V192H810.497V161.715C810.497 151.522 806.291 146.425 797.879 146.425C793.623 146.425 790.06 147.81 787.19 150.581C784.32 153.254 782.885 157.064 782.885 162.012V192Z" fill="black"/>
</g>
<line x1="107.5" y1="200" x2="106.5" y2="231" stroke="#81568F" stroke-width="15"/>
<circle cx="729.5" cy="230.5" r="7.5" fill="#81568F"/>
<circle cx="748.5" cy="230.5" r="7.5" fill="#63446D"/>
<circle cx="796.5" cy="230.5" r="7.5" fill="#63446D"/>
<circle cx="815.5" cy="230.5" r="7.5" fill="#4A3153"/>
<circle cx="107.5" cy="230.5" r="7.5" fill="#81568F"/>
<line x1="108" y1="230.5" x2="730" y2="230.5" stroke="#81568F" stroke-width="15"/>
<path d="M749 230.5H797" stroke="#63446D" stroke-width="15"/>
<defs>
<filter id="filter0_d" x="0" y="40" width="213.655" height="175.478" filterUnits="userSpaceOnUse" color-interpolation-filters="sRGB">
<feFlood flood-opacity="0" result="BackgroundImageFix"/>
<feColorMatrix in="SourceAlpha" type="matrix" values="0 0 0 0 0 0 0 0 0 0 0 0 0 0 0 0 0 0 127 0"/>
<feOffset dy="4"/>
<feGaussianBlur stdDeviation="2"/>
<feColorMatrix type="matrix" values="0 0 0 0 0 0 0 0 0 0 0 0 0 0 0 0 0 0 0.25 0"/>
<feBlend mode="normal" in2="BackgroundImageFix" result="effect1_dropShadow"/>
<feBlend mode="normal" in="SourceGraphic" in2="effect1_dropShadow" result="shape"/>
</filter>
<filter id="filter1_d" x="235.462" y="114.953" width="590.763" height="85.9381" filterUnits="userSpaceOnUse" color-interpolation-filters="sRGB">
<feFlood flood-opacity="0" result="BackgroundImageFix"/>
<feColorMatrix in="SourceAlpha" type="matrix" values="0 0 0 0 0 0 0 0 0 0 0 0 0 0 0 0 0 0 127 0"/>
<feOffset dy="4"/>
<feGaussianBlur stdDeviation="2"/>
<feColorMatrix type="matrix" values="0 0 0 0 0 0 0 0 0 0 0 0 0 0 0 0 0 0 0.25 0"/>
<feBlend mode="normal" in2="BackgroundImageFix" result="effect1_dropShadow"/>
<feBlend mode="normal" in="SourceGraphic" in2="effect1_dropShadow" result="shape"/>
</filter>
</defs>
</svg>
